<svg xmlns="http://www.w3.org/2000/svg" viewBox="0 0 24 24" fill="none">
  <path d="M4 8.2c0-1.8 1.6-3.2 3.9-3.2 1.6 0 2.8.4 3.8 1l-.9 2.2c-.9-.5-1.8-.8-2.9-.8-.8 0-1.3.3-1.3.8s.4.8 2.1 1.3c2.7.8 3.9 1.8 3.9 4.1 0 2-1.6 3.3-4.2 3.3-1.9 0-3.4-.5-4.4-1.2l1-2.3c1.1.7 2.2 1.1 3.5 1.1.9 0 1.5-.3 1.5-.9 0-.5-.4-.8-2-1.3C5.4 11.6 4 10.8 4 8.2Z" fill="#B8BCC9"/>
  <path d="M14.8 7.2H20" stroke="#B8BCC9" stroke-width="1.8" stroke-linecap="round"/>
  <path d="M14.8 11.5H20" stroke="#B8BCC9" stroke-width="1.8" stroke-linecap="round"/>
  <path d="M14.8 15.8H20" stroke="#B8BCC9" stroke-width="1.8" stroke-linecap="round"/>
</svg>
